<svg xmlns="http://www.w3.org/2000/svg" viewBox="0 0 429.17 90.98"><defs><style>.cls-1{fill:#f15a29;}.cls-2{fill:#3c93b9;}</style></defs><g id="Layer_2" data-name="Layer 2"><g id="Layer_1-2" data-name="Layer 1"><path class="cls-1" d="M105.44,77.92c-9,8.83-20.53,12.94-33.1,12.94C40,90.86,26.28,68.58,26.16,45.93S40.85,0,72.34,0a44.94,44.94,0,0,1,32,13.32l-11,10.58a30,30,0,0,0-21-8.22c-21,0-30.12,15.69-30,30.25s8.46,29.5,30,29.5a32.12,32.12,0,0,0,21.9-8.84Z"/><path class="cls-1" d="M125.23,63.6c1,7.59,7.59,13.07,18.3,13.07,5.6,0,12.94-2.11,16.43-5.72l9.71,9.58c-6.48,6.72-17.06,10-26.39,10-21.16,0-33.73-13.07-33.73-32.74,0-18.67,12.69-32.11,32.61-32.11,20.54,0,33.36,12.7,31,38ZM158.59,51c-1-8-7.22-12-15.93-12-8.22,0-14.94,4-17.18,12Z"/><path class="cls-1" d="M199.91,1.87v87H184.85v-87Z"/><path class="cls-1" d="M253.3,43.81c-4.3-4.11-9.3-5.47-15.18-5.47-7.22,0-11.2,2.24-11.2,6.09s3.61,6.23,11.45,6.73c11.57.74,26.26,3.36,26.26,19.66,0,10.83-8.84,20.16-26.39,20.16-9.71,0-19.41-1.61-28.38-11l7.47-10.83c4.36,4.86,14.32,8.47,21.16,8.59,5.73.13,11.08-2.86,11.08-7.34,0-4.23-3.48-6-12.2-6.47C225.8,63.1,212,58.87,212,44.93c0-14.19,14.69-19.17,25.89-19.17,9.58,0,16.8,1.87,23.9,8.09Z"/><path class="cls-1" d="M289.27,2.36V16.68H274.21V2.36Zm-14.93,24.9V88.87h15.18V27.26Z"/><path class="cls-1" d="M318.77,27.51V59.62c0,9.33,5.1,16.43,14.81,16.43,9.34,0,15.68-7.84,15.68-17.18V27.51h15.07V89H350.76l-1-8.34c-6.35,6.23-12.2,9.21-20.78,9.21-14.69,0-25.39-11.07-25.39-30.12V27.51Z"/><path class="cls-1" d="M417.84,43.81c-4.35-4.11-9.33-5.47-15.18-5.47-7.22,0-11.2,2.24-11.2,6.09s3.61,6.23,11.45,6.73c11.57.74,26.26,3.36,26.26,19.66,0,10.83-8.84,20.16-26.39,20.16-9.7,0-19.41-1.61-28.37-11l7.46-10.83c4.36,4.86,14.32,8.47,21.16,8.59,5.73.13,11.08-2.86,11.08-7.34,0-4.23-3.48-6-12.2-6.47-11.57-.88-25.39-5.11-25.39-19,0-14.19,14.69-19.17,25.89-19.17,9.58,0,16.8,1.87,23.9,8.09Z"/><path class="cls-2" d="M10,2.36a10,10,0,1,0,10,10h0A10,10,0,0,0,10,2.36ZM10,17a4.6,4.6,0,1,1,4.6-4.6h0A4.59,4.59,0,0,1,10,17Z"/></g></g></svg>