<svg xmlns="http://www.w3.org/2000/svg" viewBox="0 0 429.17 156.64"><defs><style>.cls-1{fill:#f15a29;}.cls-2{fill:#3c93b9;}</style></defs><g id="Layer_2" data-name="Layer 2"><g id="Layer_1-2" data-name="Layer 1"><path class="cls-1" d="M105.44,77.92c-9,8.83-20.53,12.94-33.1,12.94C40,90.86,26.28,68.58,26.16,45.93S40.85,0,72.34,0a44.93,44.93,0,0,1,32,13.32L93.37,23.9a29.92,29.92,0,0,0-21-8.22c-21,0-30.12,15.69-30,30.25s8.46,29.5,30,29.5a32.09,32.09,0,0,0,21.9-8.84Z"/><path class="cls-1" d="M125.23,63.6c1,7.59,7.59,13.07,18.3,13.07,5.6,0,12.94-2.11,16.43-5.72l9.71,9.58c-6.48,6.72-17.06,10-26.39,10-21.16,0-33.73-13.07-33.73-32.74,0-18.67,12.69-32.11,32.61-32.11,20.54,0,33.36,12.7,31,38ZM158.59,51c-1-8-7.22-12-15.93-12-8.22,0-14.94,4-17.18,12Z"/><path class="cls-1" d="M199.91,1.87v87H184.85v-87Z"/><path class="cls-1" d="M253.3,43.81C249,39.7,244,38.34,238.12,38.34c-7.22,0-11.2,2.24-11.2,6.09s3.61,6.23,11.45,6.73c11.57.74,26.26,3.36,26.26,19.66,0,10.83-8.84,20.16-26.39,20.16-9.71,0-19.41-1.61-28.38-11l7.47-10.83c4.36,4.86,14.32,8.47,21.16,8.59,5.73.13,11.08-2.86,11.08-7.34,0-4.23-3.48-6-12.2-6.47C225.8,63.1,212,58.87,212,44.93c0-14.19,14.69-19.17,25.89-19.17,9.58,0,16.8,1.87,23.9,8.09Z"/><path class="cls-1" d="M289.27,2.36V16.68H274.21V2.36Zm-14.93,24.9V88.87h15.18V27.26Z"/><path class="cls-1" d="M318.77,27.51V59.62c0,9.33,5.1,16.43,14.81,16.43,9.34,0,15.68-7.84,15.68-17.18V27.51h15.07V89H350.76l-1-8.34c-6.35,6.23-12.2,9.21-20.78,9.21-14.69,0-25.39-11.07-25.39-30.12V27.51Z"/><path class="cls-1" d="M417.84,43.81c-4.35-4.11-9.33-5.47-15.18-5.47-7.22,0-11.2,2.24-11.2,6.09s3.61,6.23,11.45,6.73c11.57.74,26.26,3.36,26.26,19.66,0,10.83-8.84,20.16-26.39,20.16-9.7,0-19.41-1.61-28.37-11l7.46-10.83c4.36,4.86,14.32,8.47,21.16,8.59,5.73.13,11.08-2.86,11.08-7.34,0-4.23-3.48-6-12.2-6.47-11.57-.88-25.39-5.11-25.39-19,0-14.19,14.69-19.17,25.89-19.17,9.58,0,16.8,1.87,23.9,8.09Z"/><path class="cls-2" d="M10,2.36a10,10,0,1,0,10,10A10,10,0,0,0,10,2.36ZM10,17a4.6,4.6,0,1,1,4.6-4.59A4.59,4.59,0,0,1,10,17Z"/><path class="cls-2" d="M77.11,145.16V116.44H71.64v-4H87.07v4H81.5v28.72Z"/><path class="cls-2" d="M100.71,138.06c0,4.93-2.41,7.4-7.48,7.4s-7.35-2.37-7.35-7.4V128.6c0-5,2.37-7.39,7.39-7.39s7.44,2.42,7.44,7.39v5.87H90v3.69c0,2.37,1.09,3.55,3.21,3.55s3.3-1.18,3.3-3.55V137h4.18Zm-4.18-9.55c0-2.37-1-3.55-3.26-3.55S90,126.14,90,128.51v2.8h6.51Z"/><path class="cls-2" d="M124.51,145.16V128.31c0-2.32-1-3.35-2.9-3.35s-2.71,1-3.4,3.45v16.75h-4.09V128.31c0-2.32-1-3.35-2.91-3.35s-2.71,1-3.4,3.45v16.75h-4.24V121.51h3.94l.15,3.4h.2c1-2.56,2.56-3.7,4.93-3.7a4.93,4.93,0,0,1,5.07,4c1.33-3.11,3.2-4,5.42-4,3.25,0,5.52,2.22,5.52,6.31v17.64Z"/><path class="cls-2" d="M131.66,156.64V121.51h3.79l.15,3.4h.2c1-2.56,2.61-3.7,5.17-3.7,3.55,0,5.67,2.22,5.67,6.31v11.63c0,4.09-2.12,6.31-5.62,6.31a4.91,4.91,0,0,1-5-3.26h-.19v14.44Zm10.69-28.13c0-2.47-1.08-3.55-3.1-3.55s-2.81,1-3.5,3.45v9.85c.69,2.47,1.52,3.45,3.5,3.45s3.1-1.08,3.1-3.55Z"/><path class="cls-2" d="M164.33,138.06c0,4.93-2.42,7.4-7.49,7.4s-7.35-2.37-7.35-7.4V128.6c0-5,2.37-7.39,7.4-7.39s7.44,2.42,7.44,7.39v5.87h-10.7v3.69c0,2.37,1.09,3.55,3.21,3.55s3.3-1.18,3.3-3.55V137h4.19Zm-4.19-9.55c0-2.37-1-3.55-3.25-3.55s-3.26,1.18-3.26,3.55v2.8h6.51Z"/><path class="cls-2" d="M167.18,145.16V121.51h3.95l.14,4h.2c.94-2.76,2.66-4.34,5.12-4.34a4,4,0,0,1,2,.5v3.89a4.22,4.22,0,0,0-2.22-.49c-2.61,0-4.14,1.33-4.93,5.51v14.54Z"/><path class="cls-2" d="M190.74,145.16l-.15-3h-.2a5.84,5.84,0,0,1-5.62,3.31c-3.69,0-5.17-2.07-5.17-5.28v-2.36c0-4.14,1.68-5.57,6.31-6.9,2.17-.64,4.48-1,4.48-2.61v-1c0-1.62-1-2.41-3-2.41-2.22,0-3.35.89-3.35,2.66v1.53h-4v-2c0-3.94,2.81-5.87,7.59-5.87,4.63,0,7,1.78,7,5.52v18.43Zm-.3-13c-1,.74-1.58.79-3.4,1.33-2.76.84-3.25,1.78-3.25,3.6v2.12c0,1.72,1,2.51,2.81,2.51s3.1-.94,3.84-2.81Z"/><path class="cls-2" d="M207.78,131.66h3.65v6.4c0,5-1.63,7.4-6.6,7.4s-7.39-2.42-7.39-7.4V115h4.18v6.55h9.81v3.79h-9.81v12.76c0,2.42,1,3.55,3.26,3.55s2.9-1.13,2.9-3.55Z"/><path class="cls-2" d="M218.62,121.51v16.55c0,2.67.94,3.65,3.06,3.65s2.86-1,3.45-3.84V121.51h4.24v23.65h-4l-.09-3.4h-.2c-1.09,2.66-2.61,3.7-5.22,3.7-4,0-5.52-2.62-5.52-7.44V121.51Z"/><path class="cls-2" d="M232.22,145.16V121.51h3.95l.14,4h.2c.94-2.76,2.66-4.34,5.12-4.34a4,4,0,0,1,2,.5v3.89a4.15,4.15,0,0,0-2.21-.49c-2.61,0-4.14,1.33-4.93,5.51v14.54Z"/><path class="cls-2" d="M260.7,138.06c0,4.93-2.41,7.4-7.49,7.4s-7.34-2.37-7.34-7.4V128.6c0-5,2.37-7.39,7.39-7.39s7.44,2.42,7.44,7.39v5.87H250v3.69c0,2.37,1.08,3.55,3.2,3.55s3.3-1.18,3.3-3.55V137h4.19Zm-4.19-9.55c0-2.37-1-3.55-3.25-3.55s-3.25,1.18-3.25,3.55v2.8h6.5Z"/><path class="cls-2" d="M288.44,145.16V127.08q0-3,.15-7.1h-.2l-5.52,25.18h-4.08L273.27,120h-.2q.15,4.06.15,7.1v18.08h-3.94V112.44H276l4.83,24H281l4.83-24h6.55v32.72Z"/><path class="cls-2" d="M309.93,138.06c0,5.08-2.37,7.4-7.4,7.4s-7.39-2.32-7.39-7.4V128.6c0-5.07,2.37-7.39,7.39-7.39s7.4,2.32,7.4,7.39Zm-4.14-9.46c0-2.41-1.09-3.54-3.26-3.54s-3.25,1.13-3.25,3.54v9.46c0,2.42,1.09,3.55,3.25,3.55s3.26-1.13,3.26-3.55Z"/><path class="cls-2" d="M323.62,145.16V128.31c0-2.32-1.08-3.35-3.05-3.35s-2.81,1-3.55,3.45v16.75h-4.24V121.51h3.94l.15,3.4h.2c1-2.56,2.66-3.7,5.17-3.7,3.35,0,5.67,2.22,5.67,6.31v17.64Z"/><path class="cls-2" d="M330.77,118.6v-5.32H335v5.32Zm0,26.56V121.51H335v23.65Z"/><path class="cls-2" d="M348.21,131.66h3.65v6.4c0,5-1.63,7.4-6.61,7.4s-7.39-2.42-7.39-7.4V115h4.19v6.55h9.81v3.79h-9.81v12.76c0,2.42,1,3.55,3.25,3.55s2.91-1.13,2.91-3.55Z"/><path class="cls-2" d="M369.54,138.06c0,5.08-2.36,7.4-7.39,7.4s-7.39-2.32-7.39-7.4V128.6c0-5.07,2.37-7.39,7.39-7.39s7.39,2.32,7.39,7.39Zm-4.14-9.46c0-2.41-1.08-3.54-3.25-3.54s-3.25,1.13-3.25,3.54v9.46c0,2.42,1.08,3.55,3.25,3.55s3.25-1.13,3.25-3.55Z"/><path class="cls-2" d="M372.4,145.16V121.51h3.94l.15,4h.2c.93-2.76,2.66-4.34,5.12-4.34a4,4,0,0,1,2,.5v3.89a4.15,4.15,0,0,0-2.21-.49c-2.62,0-4.14,1.33-4.93,5.51v14.54Z"/></g></g></svg>